<svg xmlns="http://www.w3.org/2000/svg" xmlns:xlink="http://www.w3.org/1999/xlink" width="1920" zoomAndPan="magnify" viewBox="0 0 1440 809.999993" height="1080" preserveAspectRatio="xMidYMid meet" version="1.0"><defs><clipPath id="ba042801d4"><path d="M 593 439 L 701 439 L 701 547 L 593 547 Z M 593 439 " clip-rule="nonzero"/></clipPath><clipPath id="eb89718cb4"><path d="M 568.25 520.460938 L 674.296875 414.414062 L 700.832031 440.949219 L 594.785156 546.996094 Z M 568.25 520.460938 " clip-rule="nonzero"/></clipPath><clipPath id="03696829f5"><path d="M 593.707031 495.003906 L 648.757812 439.949219 L 700.753906 441.03125 L 594.785156 546.996094 Z M 593.707031 495.003906 " clip-rule="nonzero"/></clipPath><clipPath id="00a6f2de7b"><path d="M 0.519531 0.921875 L 107.800781 0.921875 L 107.800781 108 L 0.519531 108 Z M 0.519531 0.921875 " clip-rule="nonzero"/></clipPath><clipPath id="1044844203"><path d="M -24.75 81.460938 L 81.296875 -24.585938 L 107.832031 1.949219 L 1.785156 107.996094 Z M -24.75 81.460938 " clip-rule="nonzero"/></clipPath><clipPath id="edba91c947"><path d="M 0.707031 56.003906 L 55.757812 0.949219 L 107.753906 2.03125 L 1.785156 107.996094 Z M 0.707031 56.003906 " clip-rule="nonzero"/></clipPath><clipPath id="12d985032e"><rect x="0" width="108" y="0" height="108"/></clipPath><clipPath id="e7e5fc27ae"><path d="M 596 261 L 704 261 L 704 369 L 596 369 Z M 596 261 " clip-rule="nonzero"/></clipPath><clipPath id="9d09532054"><path d="M 728.738281 288.28125 L 622.691406 394.328125 L 596.152344 367.789062 L 702.199219 261.742188 Z M 728.738281 288.28125 " clip-rule="nonzero"/></clipPath><clipPath id="a8915ac35c"><path d="M 703.28125 313.738281 L 648.226562 368.789062 L 596.234375 367.707031 L 702.199219 261.742188 Z M 703.28125 313.738281 " clip-rule="nonzero"/></clipPath><clipPath id="d0dfb2fe8b"><path d="M 0.160156 0.601562 L 107.441406 0.601562 L 107.441406 107.878906 L 0.160156 107.878906 Z M 0.160156 0.601562 " clip-rule="nonzero"/></clipPath><clipPath id="1ea2b5134c"><path d="M 132.738281 27.28125 L 26.691406 133.328125 L 0.152344 106.789062 L 106.199219 0.742188 Z M 132.738281 27.28125 " clip-rule="nonzero"/></clipPath><clipPath id="5b1601f3e4"><path d="M 107.28125 52.738281 L 52.226562 107.789062 L 0.234375 106.707031 L 106.199219 0.742188 Z M 107.28125 52.738281 " clip-rule="nonzero"/></clipPath><clipPath id="2332e53fa1"><rect x="0" width="108" y="0" height="108"/></clipPath><clipPath id="5d0d045e14"><path d="M 739 439 L 847 439 L 847 548 L 739 548 Z M 739 439 " clip-rule="nonzero"/></clipPath><clipPath id="e0fd87612c"><path d="M 765.78125 414.5 L 871.828125 520.546875 L 845.292969 547.085938 L 739.246094 441.039062 Z M 765.78125 414.5 " clip-rule="nonzero"/></clipPath><clipPath id="f9bb58d071"><path d="M 791.238281 439.957031 L 846.292969 495.011719 L 845.210938 547.003906 L 739.246094 441.039062 Z M 791.238281 439.957031 " clip-rule="nonzero"/></clipPath><clipPath id="653e0aaf51"><path d="M 0.199219 0.921875 L 107.480469 0.921875 L 107.480469 108 L 0.199219 108 Z M 0.199219 0.921875 " clip-rule="nonzero"/></clipPath><clipPath id="acf80dc8b1"><path d="M 26.78125 -24.5 L 132.828125 81.546875 L 106.292969 108.085938 L 0.246094 2.039062 Z M 26.78125 -24.5 " clip-rule="nonzero"/></clipPath><clipPath id="71edf6549e"><path d="M 52.238281 0.957031 L 107.292969 56.011719 L 106.210938 108.003906 L 0.246094 2.039062 Z M 52.238281 0.957031 " clip-rule="nonzero"/></clipPath><clipPath id="ff864b64d4"><rect x="0" width="108" y="0" height="109"/></clipPath><clipPath id="188a166e17"><path d="M 739 313 L 847 313 L 847 422 L 739 422 Z M 739 313 " clip-rule="nonzero"/></clipPath><clipPath id="21ccb1b1d6"><path d="M 871.742188 340.535156 L 765.695312 446.582031 L 739.15625 420.042969 L 845.203125 313.996094 Z M 871.742188 340.535156 " clip-rule="nonzero"/></clipPath><clipPath id="5036d239e4"><path d="M 846.285156 365.988281 L 791.230469 421.042969 L 739.238281 419.960938 L 845.203125 313.996094 Z M 846.285156 365.988281 " clip-rule="nonzero"/></clipPath><clipPath id="9fe5b08c0b"><path d="M 0.199219 0.921875 L 107.480469 0.921875 L 107.480469 108.199219 L 0.199219 108.199219 Z M 0.199219 0.921875 " clip-rule="nonzero"/></clipPath><clipPath id="f499475750"><path d="M 132.742188 27.535156 L 26.695312 133.582031 L 0.15625 107.042969 L 106.203125 0.996094 Z M 132.742188 27.535156 " clip-rule="nonzero"/></clipPath><clipPath id="f90622ea72"><path d="M 107.285156 52.988281 L 52.230469 108.042969 L 0.238281 106.960938 L 106.203125 0.996094 Z M 107.285156 52.988281 " clip-rule="nonzero"/></clipPath><clipPath id="08aa2396f2"><rect x="0" width="108" y="0" height="109"/></clipPath></defs><g clip-path="url(#ba042801d4)"><g clip-path="url(#eb89718cb4)"><g clip-path="url(#03696829f5)"><g transform="matrix(1, 0, 0, 1, 593, 439)"><g clip-path="url(#12d985032e)"><g clip-path="url(#00a6f2de7b)"><g clip-path="url(#1044844203)"><g clip-path="url(#edba91c947)"><path fill="#48494d" d="M -24.75 81.460938 L 81.191406 -24.484375 L 107.730469 2.054688 L 1.785156 107.996094 Z M -24.75 81.460938 " fill-opacity="1" fill-rule="nonzero"/></g></g></g></g></g></g></g></g><g clip-path="url(#e7e5fc27ae)"><g clip-path="url(#9d09532054)"><g clip-path="url(#a8915ac35c)"><g transform="matrix(1, 0, 0, 1, 596, 261)"><g clip-path="url(#2332e53fa1)"><g clip-path="url(#d0dfb2fe8b)"><g clip-path="url(#1ea2b5134c)"><g clip-path="url(#5b1601f3e4)"><path fill="#48494d" d="M 132.738281 27.28125 L 26.792969 133.222656 L 0.257812 106.6875 L 106.199219 0.742188 Z M 132.738281 27.28125 " fill-opacity="1" fill-rule="nonzero"/></g></g></g></g></g></g></g></g><g clip-path="url(#5d0d045e14)"><g clip-path="url(#e0fd87612c)"><g clip-path="url(#f9bb58d071)"><g transform="matrix(1, 0, 0, 1, 739, 439)"><g clip-path="url(#ff864b64d4)"><g clip-path="url(#653e0aaf51)"><g clip-path="url(#acf80dc8b1)"><g clip-path="url(#71edf6549e)"><path fill="#48494d" d="M 26.78125 -24.5 L 132.726562 81.445312 L 106.1875 107.980469 L 0.246094 2.039062 Z M 26.78125 -24.5 " fill-opacity="1" fill-rule="nonzero"/></g></g></g></g></g></g></g></g><g clip-path="url(#188a166e17)"><g clip-path="url(#21ccb1b1d6)"><g clip-path="url(#5036d239e4)"><g transform="matrix(1, 0, 0, 1, 739, 313)"><g clip-path="url(#08aa2396f2)"><g clip-path="url(#9fe5b08c0b)"><g clip-path="url(#f499475750)"><g clip-path="url(#f90622ea72)"><path fill="#48494d" d="M 132.742188 27.535156 L 26.796875 133.476562 L 0.257812 106.941406 L 106.203125 0.996094 Z M 132.742188 27.535156 " fill-opacity="1" fill-rule="nonzero"/></g></g></g></g></g></g></g></g></svg>